<svg id="a0f4c522-d0e8-404b-95f8-59a6be9d5f61" xmlns="http://www.w3.org/2000/svg" viewBox="0 0 985.59 661.15"><defs><style>.cls-1{fill:#3f3d56;}.cls-2{fill:#f3d2c1;}.cls-3{fill:#2f2e41;}.cls-4{fill:#a0616a;}.cls-5{fill:#d0cde1;}.cls-6{opacity:0.1;isolation:isolate;}</style></defs><title>book2</title><rect class="cls-1" x="27.52" y="640.3" width="929" height="2"/><rect class="cls-1" x="527.02" y="-5.2" width="2" height="929" transform="translate(-100.67 766.75) rotate(-67.08)"/><rect class="cls-1" x="27.52" y="277.3" width="929" height="2"/><path class="cls-2" d="M830.52,320.8a322.07,322.07,0,0,1-93.73,228.11q-4.94,5-10.09,9.7-6.21,5.73-12.74,11.11c-.83.69-1.66,1.37-2.5,2a313.73,313.73,0,0,1-55.56,36l-3.52,1.76c-1.87.92-3.76,1.82-5.65,2.7A311.18,311.18,0,0,1,423.48,627.4c-129.07-40.06-223-162.17-223-306.6,0-177,141-320.5,315-320.5S830.52,143.79,830.52,320.8Z"/><path class="cls-1" d="M585.66,253.57h.25l-1-2.17a60.49,60.49,0,0,0-4-8.89L551.94,179a11.44,11.44,0,0,0-10.6-6.7l-36.64.61A11.44,11.44,0,0,0,494,180.71L471,249.9a60.4,60.4,0,0,0-2,5.92l-.78,2.35h.18a60.85,60.85,0,1,0,117.24-4.59Z"/><rect class="cls-2" x="480.21" y="219.4" width="64.08" height="1.32" transform="translate(203.61 684.35) rotate(-79.63)"/><rect class="cls-2" x="536.72" y="187.6" width="1.32" height="64.08" transform="translate(-34.39 119.17) rotate(-12.26)"/><path class="cls-1" d="M500.7,141.86l47-.78a1.32,1.32,0,1,1,0,2.65l-47,.78a1.32,1.32,0,1,1-.05-2.65h0Z"/><path class="cls-1" d="M501.19,151.78l47-.78a1.32,1.32,0,1,1,.05,2.65h0l-47,.78a1.32,1.32,0,0,1,0-2.65Z"/><path class="cls-1" d="M501.69,161.69l47-.78a1.32,1.32,0,1,1,0,2.65l-47,.78a1.32,1.32,0,0,1,0-2.65Z"/><path class="cls-1" d="M524,132c-9.31.16-16.78,5.47-16.67,11.88l33.73-.56C541,136.95,533.33,131.88,524,132Z"/><path class="cls-2" d="M529.21,260.77a8.15,8.15,0,0,1,4.95,2.11c.35.29.69.59,1,.9a10.33,10.33,0,0,0,3.9,2.55c3.23.88,6.42-1.67,9.12-4.29l.92.95c-3,2.88-6.51,5.67-10.39,4.62a11.46,11.46,0,0,1-4.42-2.83c-.33-.29-.67-.59-1-.87-1.11-.92-3.24-2.34-5.14-1.6a6.44,6.44,0,0,0-2.06,1.59,12.31,12.31,0,0,1-1.43,1.29,6.48,6.48,0,0,1-7.18.21,12.8,12.8,0,0,1-1.12-.84,4.69,4.69,0,0,0-2.12-1.21c-1.12-.16-2.15.64-3.23,1.49a6.84,6.84,0,0,1-3.74,1.86h-.14c-2.64,0-4.31-2.59-5.34-4.6l1.18-.61c1.41,2.72,2.76,4,4.24,3.88a5.82,5.82,0,0,0,3-1.58c1.25-1,2.55-2,4.23-1.76a5.72,5.72,0,0,1,2.77,1.49,11.65,11.65,0,0,0,1,.76,5.2,5.2,0,0,0,5.68-.17,11.16,11.16,0,0,0,1.27-1.15,7.52,7.52,0,0,1,2.51-1.89A4.35,4.35,0,0,1,529.21,260.77Z"/><rect class="cls-1" x="524.13" width="1.37" height="131.98"/><path class="cls-2" d="M940.42,228.67c-8.38,31-37.09,50.18-37.09,50.18s-15.12-31-6.74-62,37.09-50.18,37.09-50.18S948.8,197.68,940.42,228.67Z"/><path class="cls-2" d="M864.17,228.67c8.38,31,37.09,50.18,37.09,50.18s15.12-31,6.74-62-37.09-50.18-37.09-50.18S855.78,197.68,864.17,228.67Z"/><path class="cls-1" d="M876.48,222c23,22.39,25.81,56.81,25.81,56.81s-34.48-1.88-57.48-24.27S819,197.74,819,197.74,853.48,199.62,876.48,222Z"/><path class="cls-1" d="M928.1,222c-23,22.39-25.81,56.81-25.81,56.81s34.48-1.88,57.48-24.27,25.81-56.81,25.81-56.81S951.1,199.62,928.1,222Z"/><path class="cls-2" d="M121.42,590.67c-8.38,31-37.09,50.18-37.09,50.18s-15.12-31-6.74-62,37.09-50.18,37.09-50.18S129.8,559.68,121.42,590.67Z"/><path class="cls-2" d="M45.17,590.67c8.38,31,37.09,50.18,37.09,50.18s15.12-31,6.74-62S51.9,528.64,51.9,528.64,36.78,559.68,45.17,590.67Z"/><path class="cls-1" d="M57.48,584c23,22.39,25.81,56.81,25.81,56.81s-34.48-1.88-57.48-24.27S0,559.74,0,559.74,34.48,561.62,57.48,584Z"/><path class="cls-1" d="M109.1,584c-23,22.39-25.81,56.81-25.81,56.81s34.48-1.88,57.48-24.27,25.81-56.81,25.81-56.81S132.1,561.62,109.1,584Z"/><circle class="cls-3" cx="670.34" cy="285.19" r="19.23"/><path class="cls-3" d="M649.73,276.95a19.23,19.23,0,0,1,17.17-19.12,19.23,19.23,0,1,0,0,38.24A19.23,19.23,0,0,1,649.73,276.95Z"/><path class="cls-2" d="M651.11,285.19s-3,13.74,15.68,19.23Z"/><circle class="cls-3" cx="678.3" cy="351.27" r="64.57"/><path class="cls-4" d="M714,569.72c-.83.69-1.66,1.37-2.5,2a313.73,313.73,0,0,1-55.56,36l-3.52,1.76c-1.87.92-3.76,1.82-5.65,2.7l-33.1-11,.38-7.93v0L615.45,563l.49-10.34Z"/><path class="cls-3" d="M652.38,609.55c-1.87.92-3.76,1.82-5.65,2.7a306.93,306.93,0,0,1-39.91,15.37,2.22,2.22,0,0,1-.12-.62l6.93-33.87.38.16Z"/><circle class="cls-4" cx="662.18" cy="377.01" r="42.76"/><path class="cls-4" d="M696.85,379.32s6.93,34.67,19.65,42.76L646,505.3l-26.58-25.43,19.65-34.67s22-12.71,15-30Z"/><path class="cls-4" d="M780.51,494.15a320.87,320.87,0,0,1-43.72,54.76c-.71-15.5-2.25-28.28-5.27-32.06h0l-37-11.55s8.09-76.28,27.74-79.74c0,0,2.85.58,7.28,1.92,14.28,4.3,44.94,16.42,49.35,42A141.93,141.93,0,0,1,780.51,494.15Z"/><path class="cls-4" d="M639.06,445.2s-34.67-1.16-56.63,26.58-75.12,48.54-75.12,48.54l-132.91,52s-24.27-42.76-39.29-27.74,27.74,53.16,47.38,48.54,138.69-40.45,138.69-40.45l94.77-42.76Z"/><path class="cls-5" d="M731.52,516.85l-4.82,41.76q-6.21,5.73-12.74,11.11c-.83.69-1.66,1.37-2.5,2-33.37-10.23-85.66-9.09-96-8.74l-1.82.06-1.15-24.27c-11.09-3.69-14.73-11.76-14.83-20.64-.17-16.1,11.36-34.84,11.36-34.84,2.07-2.07,17.54-31.4,20.74-37.48l.58-1.1,13.87-3.46-.12.31c-1.24,3.47-12,34.86,6.54,36,18.26,1.08,58-50.2,63.45-57.39l.63-.83,15,8.09-.18,0c-9.18,2.55-17.68,24.66-17.68,24.66-24,42.24,18.58,64.18,19.63,64.71Z"/><path class="cls-3" d="M664.5,326.82c-22.76,0-41.22,10.76-41.22,24,0,5.94,3.71,11.37,9.83,15.57l7.93-5.75-2.16,9c.9.41,1.81.82,2.76,1.19L653.51,357v17a69.19,69.19,0,0,0,11,.87c22.76,0,41.22-10.76,41.22-24S687.26,326.82,664.5,326.82Z"/><circle class="cls-3" cx="748.93" cy="315.24" r="19.23"/><path class="cls-3" d="M728.32,307a19.23,19.23,0,0,1,17.17-19.12,19.43,19.43,0,0,0-2.06-.11,19.23,19.23,0,1,0,2.06,38.36A19.23,19.23,0,0,1,728.32,307Z"/><path class="cls-2" d="M729.7,315.24s-3,13.74,15.68,19.23Z"/><ellipse class="cls-4" cx="706.67" cy="373.54" rx="3.34" ry="7.51"/><path class="cls-5" d="M338.18,402.61,287.5,414.88l-.17,0-5.51,5-1.59,1.43-3.4-.62-6-1.09L275,405.49l.79-27L272.93,362l16-11S320.1,349.14,338.18,402.61Z"/><path class="cls-6" d="M287.5,414.88c-.69,1.47.75.5,0,2l-7.34,2.36-3.29,1.48-6-1.09L275,405.49l.79-27L272.93,362l16-11S306.07,375.28,287.5,414.88Z"/><path class="cls-5" d="M397.93,363.82s-66.57,30.92-93.56,35.64-24.63,31.71-24.63,31.71L431,407.59S425.71,383.21,397.93,363.82Z"/><path class="cls-2" d="M269.52,358.58s11.53,28-1.31,62.9l14.94,6.81,5.77-6.81.13-.66-15.86-1.44s13.1-35.12,2.36-59.49C275.55,359.89,273.19,354.65,269.52,358.58Z"/><path class="cls-1" d="M489.4,566.4c-59-13.1-113.87,14-113.87,14l-.15-.13-21.86-19.52L268.08,421.34l20.83.13c57.92-34.59,139.42-29.88,139.42-29.88C463.45,431.43,489.4,566.4,489.4,566.4Z"/><path class="cls-6" d="M375.38,580.29l-21.86-19.52L268.08,421.34l20.83.13S372,531.15,375.38,580.29Z"/><ellipse class="cls-5" cx="378.67" cy="450.96" rx="33.81" ry="21.49" transform="translate(-115.59 130.86) rotate(-17.05)"/><circle class="cls-1" cx="27.79" cy="277.15" r="19"/><circle class="cls-1" cx="955.79" cy="642.15" r="19"/><circle class="cls-2" cx="110.79" cy="279.15" r="15"/><circle class="cls-2" cx="955.79" cy="279.15" r="15"/><circle class="cls-2" cx="27.79" cy="640.15" r="15"/></svg>